%TF.GenerationSoftware,KiCad,Pcbnew,(6.0.6)*%
%TF.CreationDate,2022-10-14T11:17:07+05:30*%
%TF.ProjectId,SHT30_breakout,53485433-305f-4627-9265-616b6f75742e,rev?*%
%TF.SameCoordinates,Original*%
%TF.FileFunction,Copper,L1,Top*%
%TF.FilePolarity,Positive*%
%FSLAX46Y46*%
G04 Gerber Fmt 4.6, Leading zero omitted, Abs format (unit mm)*
G04 Created by KiCad (PCBNEW (6.0.6)) date 2022-10-14 11:17:07*
%MOMM*%
%LPD*%
G01*
G04 APERTURE LIST*
G04 Aperture macros list*
%AMRoundRect*
0 Rectangle with rounded corners*
0 $1 Rounding radius*
0 $2 $3 $4 $5 $6 $7 $8 $9 X,Y pos of 4 corners*
0 Add a 4 corners polygon primitive as box body*
4,1,4,$2,$3,$4,$5,$6,$7,$8,$9,$2,$3,0*
0 Add four circle primitives for the rounded corners*
1,1,$1+$1,$2,$3*
1,1,$1+$1,$4,$5*
1,1,$1+$1,$6,$7*
1,1,$1+$1,$8,$9*
0 Add four rect primitives between the rounded corners*
20,1,$1+$1,$2,$3,$4,$5,0*
20,1,$1+$1,$4,$5,$6,$7,0*
20,1,$1+$1,$6,$7,$8,$9,0*
20,1,$1+$1,$8,$9,$2,$3,0*%
G04 Aperture macros list end*
%TA.AperFunction,SMDPad,CuDef*%
%ADD10RoundRect,0.250000X-0.337500X-0.475000X0.337500X-0.475000X0.337500X0.475000X-0.337500X0.475000X0*%
%TD*%
%TA.AperFunction,SMDPad,CuDef*%
%ADD11R,1.200000X1.900000*%
%TD*%
%TA.AperFunction,SMDPad,CuDef*%
%ADD12R,0.800000X0.300000*%
%TD*%
%TA.AperFunction,ComponentPad*%
%ADD13R,1.700000X1.700000*%
%TD*%
%TA.AperFunction,ComponentPad*%
%ADD14O,1.700000X1.700000*%
%TD*%
%TA.AperFunction,SMDPad,CuDef*%
%ADD15RoundRect,0.250000X-0.400000X-0.625000X0.400000X-0.625000X0.400000X0.625000X-0.400000X0.625000X0*%
%TD*%
%TA.AperFunction,SMDPad,CuDef*%
%ADD16RoundRect,0.250000X0.400000X0.625000X-0.400000X0.625000X-0.400000X-0.625000X0.400000X-0.625000X0*%
%TD*%
%TA.AperFunction,Conductor*%
%ADD17C,0.300000*%
%TD*%
G04 APERTURE END LIST*
D10*
%TO.P,C1,1*%
%TO.N,Net-(C1-Pad1)*%
X95362500Y-66200000D03*
%TO.P,C1,2*%
%TO.N,GND*%
X97437500Y-66200000D03*
%TD*%
D11*
%TO.P,IC1,9,EP*%
%TO.N,GND*%
X93000000Y-62000000D03*
D12*
%TO.P,IC1,8,VSS*%
X94200000Y-61250000D03*
%TO.P,IC1,7,R*%
%TO.N,Net-(J2-Pad3)*%
X94200000Y-61750000D03*
%TO.P,IC1,6,NRESET*%
%TO.N,Net-(J2-Pad2)*%
X94200000Y-62250000D03*
%TO.P,IC1,5,VDD*%
%TO.N,Net-(C1-Pad1)*%
X94200000Y-62750000D03*
%TO.P,IC1,4,SCL*%
%TO.N,Net-(IC1-Pad4)*%
X91800000Y-62750000D03*
%TO.P,IC1,3,ALERT*%
%TO.N,Net-(J1-Pad3)*%
X91800000Y-62250000D03*
%TO.P,IC1,2,ADDR*%
%TO.N,Net-(IC1-Pad2)*%
X91800000Y-61750000D03*
%TO.P,IC1,1,SDA*%
%TO.N,Net-(IC1-Pad1)*%
X91800000Y-61250000D03*
%TD*%
D13*
%TO.P,J1,1,Pin_1*%
%TO.N,Net-(IC1-Pad1)*%
X83820000Y-58420000D03*
D14*
%TO.P,J1,2,Pin_2*%
%TO.N,Net-(IC1-Pad2)*%
X83820000Y-60960000D03*
%TO.P,J1,3,Pin_3*%
%TO.N,Net-(J1-Pad3)*%
X83820000Y-63500000D03*
%TO.P,J1,4,Pin_4*%
%TO.N,Net-(IC1-Pad4)*%
X83820000Y-66040000D03*
%TD*%
D13*
%TO.P,J2,1,Pin_1*%
%TO.N,Net-(C1-Pad1)*%
X101600000Y-66040000D03*
D14*
%TO.P,J2,2,Pin_2*%
%TO.N,Net-(J2-Pad2)*%
X101600000Y-63500000D03*
%TO.P,J2,3,Pin_3*%
%TO.N,Net-(J2-Pad3)*%
X101600000Y-60960000D03*
%TO.P,J2,4,Pin_4*%
%TO.N,GND*%
X101600000Y-58420000D03*
%TD*%
D15*
%TO.P,R2,1*%
%TO.N,Net-(IC1-Pad4)*%
X89450000Y-66000000D03*
%TO.P,R2,2*%
%TO.N,Net-(C1-Pad1)*%
X92550000Y-66000000D03*
%TD*%
D16*
%TO.P,R1,2*%
%TO.N,Net-(IC1-Pad1)*%
X89450000Y-58500000D03*
%TO.P,R1,1*%
%TO.N,Net-(C1-Pad1)*%
X92550000Y-58500000D03*
%TD*%
D17*
%TO.N,Net-(J2-Pad2)*%
X99850000Y-62250000D02*
X101100000Y-63500000D01*
X94200000Y-62250000D02*
X99850000Y-62250000D01*
X101100000Y-63500000D02*
X101600000Y-63500000D01*
%TO.N,GND*%
X93000000Y-61700000D02*
X93450000Y-61250000D01*
X93000000Y-62000000D02*
X93000000Y-61700000D01*
X93450000Y-61250000D02*
X94200000Y-61250000D01*
%TO.N,Net-(C1-Pad1)*%
X100340000Y-66040000D02*
X97050000Y-62750000D01*
X101600000Y-66040000D02*
X100340000Y-66040000D01*
X97050000Y-62750000D02*
X94200000Y-62750000D01*
X92550000Y-66550000D02*
X92550000Y-66000000D01*
X90600000Y-68500000D02*
X92550000Y-66550000D01*
X82300000Y-68500000D02*
X90600000Y-68500000D01*
X81200000Y-67400000D02*
X82300000Y-68500000D01*
X81200000Y-57800000D02*
X81200000Y-67400000D01*
X82900000Y-56100000D02*
X81200000Y-57800000D01*
X91600000Y-56100000D02*
X82900000Y-56100000D01*
X92500000Y-57000000D02*
X91600000Y-56100000D01*
X92500000Y-58450000D02*
X92500000Y-57000000D01*
X95362500Y-66200000D02*
X92750000Y-66200000D01*
X92750000Y-66200000D02*
X92550000Y-66000000D01*
X93975000Y-64575000D02*
X94025000Y-64525000D01*
X93975000Y-64575000D02*
X94200000Y-64350000D01*
X92550000Y-66000000D02*
X93975000Y-64575000D01*
X94200000Y-64350000D02*
X94200000Y-62750000D01*
%TO.N,Net-(IC1-Pad1)*%
X89450000Y-59750000D02*
X89450000Y-58500000D01*
X90950000Y-61250000D02*
X89450000Y-59750000D01*
X89370000Y-58420000D02*
X89450000Y-58500000D01*
X83820000Y-58420000D02*
X89370000Y-58420000D01*
X91800000Y-61250000D02*
X90950000Y-61250000D01*
%TO.N,Net-(J1-Pad3)*%
X86800000Y-63500000D02*
X88050000Y-62250000D01*
X83820000Y-63500000D02*
X86800000Y-63500000D01*
X91800000Y-62250000D02*
X88050000Y-62250000D01*
%TO.N,Net-(J2-Pad3)*%
X99150000Y-61750000D02*
X94200000Y-61750000D01*
X99940000Y-60960000D02*
X99150000Y-61750000D01*
X101600000Y-60960000D02*
X99940000Y-60960000D01*
%TO.N,Net-(IC1-Pad4)*%
X89450000Y-66000000D02*
X89410000Y-66040000D01*
X89410000Y-66040000D02*
X83820000Y-66040000D01*
X89450000Y-63550000D02*
X89450000Y-66000000D01*
X90250000Y-62750000D02*
X89450000Y-63550000D01*
X91800000Y-62750000D02*
X90250000Y-62750000D01*
%TO.N,Net-(IC1-Pad2)*%
X86960000Y-60960000D02*
X83820000Y-60960000D01*
X87750000Y-61750000D02*
X86960000Y-60960000D01*
X91800000Y-61750000D02*
X87750000Y-61750000D01*
%TD*%
%TA.AperFunction,Conductor*%
%TO.N,GND*%
G36*
X104433621Y-54528502D02*
G01*
X104480114Y-54582158D01*
X104491500Y-54634500D01*
X104491500Y-69365500D01*
X104471498Y-69433621D01*
X104417842Y-69480114D01*
X104365500Y-69491500D01*
X80634500Y-69491500D01*
X80566379Y-69471498D01*
X80519886Y-69417842D01*
X80508500Y-69365500D01*
X80508500Y-67950011D01*
X80528502Y-67881890D01*
X80582158Y-67835397D01*
X80652432Y-67825293D01*
X80716135Y-67854386D01*
X80716159Y-67854357D01*
X80749441Y-67881890D01*
X80751752Y-67883802D01*
X80760532Y-67891792D01*
X81776345Y-68907605D01*
X81784335Y-68916385D01*
X81788584Y-68923080D01*
X81794362Y-68928506D01*
X81794363Y-68928507D01*
X81840257Y-68971604D01*
X81843099Y-68974359D01*
X81863667Y-68994927D01*
X81867170Y-68997644D01*
X81876195Y-69005352D01*
X81909867Y-69036972D01*
X81916818Y-69040793D01*
X81916819Y-69040794D01*
X81928658Y-69047303D01*
X81945182Y-69058157D01*
X81955271Y-69065982D01*
X81962132Y-69071304D01*
X81969404Y-69074451D01*
X81969406Y-69074452D01*
X82004535Y-69089654D01*
X82015195Y-69094876D01*
X82045168Y-69111354D01*
X82055663Y-69117124D01*
X82076441Y-69122459D01*
X82095131Y-69128858D01*
X82114824Y-69137380D01*
X82149563Y-69142882D01*
X82160448Y-69144606D01*
X82172071Y-69147013D01*
X82196754Y-69153350D01*
X82216812Y-69158500D01*
X82238259Y-69158500D01*
X82257969Y-69160051D01*
X82279152Y-69163406D01*
X82325141Y-69159059D01*
X82336996Y-69158500D01*
X90517944Y-69158500D01*
X90529800Y-69159059D01*
X90529803Y-69159059D01*
X90537537Y-69160788D01*
X90608369Y-69158562D01*
X90612327Y-69158500D01*
X90641432Y-69158500D01*
X90645832Y-69157944D01*
X90657664Y-69157012D01*
X90703831Y-69155562D01*
X90724421Y-69149580D01*
X90743782Y-69145570D01*
X90751416Y-69144606D01*
X90757204Y-69143875D01*
X90757205Y-69143875D01*
X90765064Y-69142882D01*
X90772429Y-69139966D01*
X90772433Y-69139965D01*
X90808021Y-69125874D01*
X90819231Y-69122035D01*
X90863600Y-69109145D01*
X90882065Y-69098225D01*
X90899805Y-69089534D01*
X90919756Y-69081635D01*
X90957129Y-69054482D01*
X90967048Y-69047967D01*
X90999977Y-69028493D01*
X90999981Y-69028490D01*
X91006807Y-69024453D01*
X91021971Y-69009289D01*
X91037005Y-68996448D01*
X91054357Y-68983841D01*
X91083803Y-68948247D01*
X91091792Y-68939468D01*
X92610854Y-67420405D01*
X92673166Y-67386380D01*
X92699949Y-67383500D01*
X93000400Y-67383500D01*
X93003646Y-67383163D01*
X93003650Y-67383163D01*
X93099308Y-67373238D01*
X93099312Y-67373237D01*
X93106166Y-67372526D01*
X93112702Y-67370345D01*
X93112704Y-67370345D01*
X93244806Y-67326272D01*
X93273946Y-67316550D01*
X93424348Y-67223478D01*
X93549305Y-67098303D01*
X93562110Y-67077529D01*
X93638275Y-66953968D01*
X93638276Y-66953966D01*
X93642115Y-66947738D01*
X93644419Y-66940791D01*
X93647513Y-66934156D01*
X93649749Y-66935199D01*
X93683523Y-66886462D01*
X93749091Y-66859234D01*
X93762672Y-66858500D01*
X94195803Y-66858500D01*
X94263924Y-66878502D01*
X94310417Y-66932158D01*
X94315326Y-66944623D01*
X94330658Y-66990576D01*
X94333450Y-66998946D01*
X94337301Y-67005170D01*
X94337302Y-67005171D01*
X94342727Y-67013938D01*
X94426522Y-67149348D01*
X94551697Y-67274305D01*
X94557927Y-67278145D01*
X94557928Y-67278146D01*
X94695288Y-67362816D01*
X94702262Y-67367115D01*
X94750646Y-67383163D01*
X94863611Y-67420632D01*
X94863613Y-67420632D01*
X94870139Y-67422797D01*
X94876975Y-67423497D01*
X94876978Y-67423498D01*
X94920031Y-67427909D01*
X94974600Y-67433500D01*
X95750400Y-67433500D01*
X95753646Y-67433163D01*
X95753650Y-67433163D01*
X95849308Y-67423238D01*
X95849312Y-67423237D01*
X95856166Y-67422526D01*
X95862702Y-67420345D01*
X95862704Y-67420345D01*
X96003900Y-67373238D01*
X96023946Y-67366550D01*
X96174348Y-67273478D01*
X96299305Y-67148303D01*
X96302102Y-67143765D01*
X96359353Y-67103176D01*
X96430276Y-67099946D01*
X96491687Y-67135572D01*
X96499062Y-67144068D01*
X96507098Y-67154207D01*
X96621829Y-67268739D01*
X96633240Y-67277751D01*
X96771243Y-67362816D01*
X96784424Y-67368963D01*
X96938710Y-67420138D01*
X96952086Y-67423005D01*
X97046438Y-67432672D01*
X97052854Y-67433000D01*
X97165385Y-67433000D01*
X97180624Y-67428525D01*
X97181829Y-67427135D01*
X97183500Y-67419452D01*
X97183500Y-67414884D01*
X97691500Y-67414884D01*
X97695975Y-67430123D01*
X97697365Y-67431328D01*
X97705048Y-67432999D01*
X97822095Y-67432999D01*
X97828614Y-67432662D01*
X97924206Y-67422743D01*
X97937600Y-67419851D01*
X98091784Y-67368412D01*
X98104962Y-67362239D01*
X98242807Y-67276937D01*
X98254208Y-67267901D01*
X98368739Y-67153171D01*
X98377751Y-67141760D01*
X98462816Y-67003757D01*
X98468963Y-66990576D01*
X98520138Y-66836290D01*
X98523005Y-66822914D01*
X98532672Y-66728562D01*
X98533000Y-66722146D01*
X98533000Y-66472115D01*
X98528525Y-66456876D01*
X98527135Y-66455671D01*
X98519452Y-66454000D01*
X97709615Y-66454000D01*
X97694376Y-66458475D01*
X97693171Y-66459865D01*
X97691500Y-66467548D01*
X97691500Y-67414884D01*
X97183500Y-67414884D01*
X97183500Y-64985116D01*
X97179025Y-64969877D01*
X97177635Y-64968672D01*
X97169952Y-64967001D01*
X97052905Y-64967001D01*
X97046386Y-64967338D01*
X96950794Y-64977257D01*
X96937400Y-64980149D01*
X96783216Y-65031588D01*
X96770038Y-65037761D01*
X96632193Y-65123063D01*
X96620792Y-65132099D01*
X96506262Y-65246828D01*
X96499206Y-65255762D01*
X96441288Y-65296823D01*
X96370365Y-65300053D01*
X96308954Y-65264426D01*
X96302154Y-65256593D01*
X96298478Y-65250652D01*
X96266605Y-65218834D01*
X96178483Y-65130866D01*
X96173303Y-65125695D01*
X96167072Y-65121854D01*
X96028968Y-65036725D01*
X96028966Y-65036724D01*
X96022738Y-65032885D01*
X95905545Y-64994014D01*
X95861389Y-64979368D01*
X95861387Y-64979368D01*
X95854861Y-64977203D01*
X95848025Y-64976503D01*
X95848022Y-64976502D01*
X95804969Y-64972091D01*
X95750400Y-64966500D01*
X94974600Y-64966500D01*
X94971354Y-64966837D01*
X94971350Y-64966837D01*
X94875692Y-64976762D01*
X94875688Y-64976763D01*
X94868834Y-64977474D01*
X94862298Y-64979655D01*
X94862296Y-64979655D01*
X94827003Y-64991430D01*
X94756054Y-64994014D01*
X94694970Y-64957831D01*
X94663145Y-64894367D01*
X94670684Y-64823771D01*
X94692507Y-64788753D01*
X94694927Y-64786333D01*
X94697647Y-64782826D01*
X94705353Y-64773804D01*
X94731544Y-64745913D01*
X94736972Y-64740133D01*
X94740794Y-64733181D01*
X94747303Y-64721342D01*
X94758157Y-64704818D01*
X94766445Y-64694132D01*
X94771304Y-64687868D01*
X94778347Y-64671593D01*
X94789654Y-64645465D01*
X94794876Y-64634805D01*
X94813305Y-64601284D01*
X94813306Y-64601282D01*
X94817124Y-64594337D01*
X94822459Y-64573559D01*
X94828858Y-64554869D01*
X94837380Y-64535176D01*
X94844606Y-64489552D01*
X94847013Y-64477929D01*
X94856528Y-64440868D01*
X94858500Y-64433188D01*
X94858500Y-64411741D01*
X94860051Y-64392031D01*
X94862166Y-64378677D01*
X94863406Y-64370848D01*
X94859059Y-64324859D01*
X94858500Y-64313004D01*
X94858500Y-63534500D01*
X94878502Y-63466379D01*
X94932158Y-63419886D01*
X94984500Y-63408500D01*
X96725050Y-63408500D01*
X96793171Y-63428502D01*
X96814145Y-63445405D01*
X98177068Y-64808328D01*
X98211094Y-64870640D01*
X98206029Y-64941455D01*
X98163482Y-64998291D01*
X98096962Y-65023102D01*
X98048306Y-65017016D01*
X97936293Y-64979863D01*
X97922914Y-64976995D01*
X97828562Y-64967328D01*
X97822145Y-64967000D01*
X97709615Y-64967000D01*
X97694376Y-64971475D01*
X97693171Y-64972865D01*
X97691500Y-64980548D01*
X97691500Y-65927885D01*
X97695975Y-65943124D01*
X97697365Y-65944329D01*
X97705048Y-65946000D01*
X98514884Y-65946000D01*
X98530123Y-65941525D01*
X98531328Y-65940135D01*
X98532999Y-65932452D01*
X98532999Y-65677905D01*
X98532662Y-65671386D01*
X98522743Y-65575794D01*
X98519851Y-65562400D01*
X98482954Y-65451804D01*
X98480370Y-65380854D01*
X98516554Y-65319770D01*
X98580018Y-65287946D01*
X98650613Y-65295485D01*
X98691573Y-65322833D01*
X99816345Y-66447605D01*
X99824335Y-66456385D01*
X99828584Y-66463080D01*
X99834362Y-66468506D01*
X99834363Y-66468507D01*
X99880257Y-66511604D01*
X99883099Y-66514359D01*
X99903667Y-66534927D01*
X99907170Y-66537644D01*
X99916195Y-66545352D01*
X99949867Y-66576972D01*
X99956818Y-66580793D01*
X99956819Y-66580794D01*
X99968658Y-66587303D01*
X99985182Y-66598157D01*
X99995271Y-66605982D01*
X100002132Y-66611304D01*
X100009404Y-66614451D01*
X100009406Y-66614452D01*
X100044535Y-66629654D01*
X100055195Y-66634876D01*
X100082394Y-66649829D01*
X100095663Y-66657124D01*
X100116441Y-66662459D01*
X100135131Y-66668858D01*
X100154824Y-66677380D01*
X100154825Y-66677380D01*
X100154683Y-66677708D01*
X100210486Y-66713344D01*
X100240165Y-66777839D01*
X100241500Y-66796130D01*
X100241500Y-66938134D01*
X100248255Y-67000316D01*
X100299385Y-67136705D01*
X100386739Y-67253261D01*
X100503295Y-67340615D01*
X100639684Y-67391745D01*
X100701866Y-67398500D01*
X102498134Y-67398500D01*
X102560316Y-67391745D01*
X102696705Y-67340615D01*
X102813261Y-67253261D01*
X102900615Y-67136705D01*
X102951745Y-67000316D01*
X102958500Y-66938134D01*
X102958500Y-65141866D01*
X102951745Y-65079684D01*
X102900615Y-64943295D01*
X102813261Y-64826739D01*
X102696705Y-64739385D01*
X102669905Y-64729338D01*
X102578203Y-64694960D01*
X102521439Y-64652318D01*
X102496739Y-64585756D01*
X102511947Y-64516408D01*
X102533493Y-64487727D01*
X102634435Y-64387137D01*
X102638096Y-64383489D01*
X102647180Y-64370848D01*
X102765435Y-64206277D01*
X102768453Y-64202077D01*
X102789960Y-64158562D01*
X102865136Y-64006453D01*
X102865137Y-64006451D01*
X102867430Y-64001811D01*
X102932370Y-63788069D01*
X102961529Y-63566590D01*
X102962635Y-63521323D01*
X102963074Y-63503365D01*
X102963074Y-63503361D01*
X102963156Y-63500000D01*
X102944852Y-63277361D01*
X102890431Y-63060702D01*
X102801354Y-62855840D01*
X102680014Y-62668277D01*
X102529670Y-62503051D01*
X102525619Y-62499852D01*
X102525615Y-62499848D01*
X102358414Y-62367800D01*
X102358410Y-62367798D01*
X102354359Y-62364598D01*
X102313053Y-62341796D01*
X102263084Y-62291364D01*
X102248312Y-62221921D01*
X102273428Y-62155516D01*
X102300780Y-62128909D01*
X102344603Y-62097650D01*
X102479860Y-62001173D01*
X102638096Y-61843489D01*
X102685834Y-61777055D01*
X102765435Y-61666277D01*
X102768453Y-61662077D01*
X102771751Y-61655405D01*
X102865136Y-61466453D01*
X102865137Y-61466451D01*
X102867430Y-61461811D01*
X102932370Y-61248069D01*
X102961529Y-61026590D01*
X102963156Y-60960000D01*
X102944852Y-60737361D01*
X102890431Y-60520702D01*
X102801354Y-60315840D01*
X102732501Y-60209410D01*
X102682822Y-60132617D01*
X102682820Y-60132614D01*
X102680014Y-60128277D01*
X102529670Y-59963051D01*
X102525619Y-59959852D01*
X102525615Y-59959848D01*
X102358414Y-59827800D01*
X102358410Y-59827798D01*
X102354359Y-59824598D01*
X102312569Y-59801529D01*
X102262598Y-59751097D01*
X102247826Y-59681654D01*
X102272942Y-59615248D01*
X102300294Y-59588641D01*
X102475328Y-59463792D01*
X102483200Y-59457139D01*
X102634052Y-59306812D01*
X102640730Y-59298965D01*
X102765003Y-59126020D01*
X102770313Y-59117183D01*
X102864670Y-58926267D01*
X102868469Y-58916672D01*
X102930377Y-58712910D01*
X102932555Y-58702837D01*
X102933986Y-58691962D01*
X102931775Y-58677778D01*
X102918617Y-58674000D01*
X100283225Y-58674000D01*
X100269694Y-58677973D01*
X100268257Y-58687966D01*
X100298565Y-58822446D01*
X100301645Y-58832275D01*
X100381770Y-59029603D01*
X100386413Y-59038794D01*
X100497694Y-59220388D01*
X100503777Y-59228699D01*
X100643213Y-59389667D01*
X100650580Y-59396883D01*
X100814434Y-59532916D01*
X100822881Y-59538831D01*
X100891969Y-59579203D01*
X100940693Y-59630842D01*
X100953764Y-59700625D01*
X100927033Y-59766396D01*
X100886584Y-59799752D01*
X100873607Y-59806507D01*
X100869474Y-59809610D01*
X100869471Y-59809612D01*
X100729022Y-59915064D01*
X100694965Y-59940635D01*
X100540629Y-60102138D01*
X100537715Y-60106410D01*
X100537714Y-60106411D01*
X100442149Y-60246504D01*
X100387238Y-60291507D01*
X100338061Y-60301500D01*
X100022059Y-60301500D01*
X100010203Y-60300941D01*
X100002463Y-60299211D01*
X99994537Y-60299460D01*
X99994536Y-60299460D01*
X99931611Y-60301438D01*
X99927653Y-60301500D01*
X99898568Y-60301500D01*
X99894637Y-60301997D01*
X99894630Y-60301997D01*
X99894179Y-60302054D01*
X99882343Y-60302986D01*
X99836169Y-60304438D01*
X99815579Y-60310420D01*
X99796218Y-60314430D01*
X99789230Y-60315312D01*
X99782796Y-60316125D01*
X99782795Y-60316125D01*
X99774936Y-60317118D01*
X99767571Y-60320034D01*
X99767567Y-60320035D01*
X99731979Y-60334126D01*
X99720769Y-60337965D01*
X99676400Y-60350855D01*
X99657935Y-60361775D01*
X99640195Y-60370466D01*
X99620244Y-60378365D01*
X99582874Y-60405516D01*
X99572952Y-60412033D01*
X99540023Y-60431507D01*
X99540019Y-60431510D01*
X99533193Y-60435547D01*
X99518029Y-60450711D01*
X99502996Y-60463551D01*
X99485643Y-60476159D01*
X99475520Y-60488396D01*
X99456198Y-60511752D01*
X99448208Y-60520532D01*
X98914145Y-61054595D01*
X98851833Y-61088621D01*
X98825050Y-61091500D01*
X95223974Y-61091500D01*
X95155853Y-61071498D01*
X95109360Y-61017842D01*
X95101391Y-60994644D01*
X95098479Y-60982397D01*
X95053324Y-60861946D01*
X95044786Y-60846351D01*
X94968285Y-60744276D01*
X94955724Y-60731715D01*
X94853649Y-60655214D01*
X94838054Y-60646676D01*
X94717606Y-60601522D01*
X94702351Y-60597895D01*
X94651486Y-60592369D01*
X94644672Y-60592000D01*
X94368115Y-60592000D01*
X94352876Y-60596475D01*
X94351671Y-60597865D01*
X94350000Y-60605548D01*
X94350000Y-60965500D01*
X94329998Y-61033621D01*
X94276342Y-61080114D01*
X94224000Y-61091500D01*
X94176000Y-61091500D01*
X94107879Y-61071498D01*
X94061386Y-61017842D01*
X94050000Y-60965500D01*
X94050000Y-60610116D01*
X94045525Y-60594877D01*
X94044135Y-60593672D01*
X94036452Y-60592001D01*
X93848425Y-60592001D01*
X93804195Y-60583983D01*
X93717606Y-60551522D01*
X93702351Y-60547895D01*
X93651486Y-60542369D01*
X93644672Y-60542000D01*
X93272115Y-60542000D01*
X93256876Y-60546475D01*
X93255671Y-60547865D01*
X93254000Y-60555548D01*
X93254000Y-61081885D01*
X93258475Y-61097124D01*
X93259865Y-61098329D01*
X93267548Y-61100000D01*
X93287329Y-61100000D01*
X93355450Y-61120002D01*
X93401943Y-61173658D01*
X93412047Y-61243932D01*
X93388156Y-61301562D01*
X93351432Y-61350563D01*
X93294574Y-61393076D01*
X93286106Y-61395892D01*
X93256876Y-61404475D01*
X93255671Y-61405865D01*
X93254000Y-61413548D01*
X93254000Y-63439884D01*
X93258475Y-63455123D01*
X93259865Y-63456328D01*
X93267548Y-63457999D01*
X93415500Y-63457999D01*
X93483621Y-63478001D01*
X93530114Y-63531657D01*
X93541500Y-63583999D01*
X93541500Y-64025050D01*
X93521498Y-64093171D01*
X93504595Y-64114145D01*
X93480073Y-64138667D01*
X93480070Y-64138671D01*
X93039146Y-64579595D01*
X92976834Y-64613621D01*
X92950051Y-64616500D01*
X92099600Y-64616500D01*
X92096354Y-64616837D01*
X92096350Y-64616837D01*
X92000692Y-64626762D01*
X92000688Y-64626763D01*
X91993834Y-64627474D01*
X91987298Y-64629655D01*
X91987296Y-64629655D01*
X91863683Y-64670896D01*
X91826054Y-64683450D01*
X91675652Y-64776522D01*
X91550695Y-64901697D01*
X91546855Y-64907927D01*
X91546854Y-64907928D01*
X91466824Y-65037761D01*
X91457885Y-65052262D01*
X91402203Y-65220139D01*
X91401503Y-65226975D01*
X91401502Y-65226978D01*
X91398553Y-65255762D01*
X91391500Y-65324600D01*
X91391500Y-66675400D01*
X91394882Y-66707992D01*
X91382018Y-66777811D01*
X91358650Y-66810090D01*
X90364145Y-67804595D01*
X90301833Y-67838621D01*
X90275050Y-67841500D01*
X82624950Y-67841500D01*
X82556829Y-67821498D01*
X82535855Y-67804595D01*
X81895405Y-67164145D01*
X81861379Y-67101833D01*
X81858500Y-67075050D01*
X81858500Y-58124950D01*
X81878502Y-58056829D01*
X81895405Y-58035855D01*
X82246405Y-57684855D01*
X82308717Y-57650829D01*
X82379532Y-57655894D01*
X82436368Y-57698441D01*
X82461179Y-57764961D01*
X82461500Y-57773950D01*
X82461500Y-59318134D01*
X82468255Y-59380316D01*
X82519385Y-59516705D01*
X82606739Y-59633261D01*
X82723295Y-59720615D01*
X82731704Y-59723767D01*
X82731705Y-59723768D01*
X82840451Y-59764535D01*
X82897216Y-59807176D01*
X82921916Y-59873738D01*
X82906709Y-59943087D01*
X82887316Y-59969568D01*
X82838723Y-60020418D01*
X82760629Y-60102138D01*
X82757715Y-60106410D01*
X82757714Y-60106411D01*
X82702737Y-60187005D01*
X82634743Y-60286680D01*
X82604954Y-60350855D01*
X82550633Y-60467881D01*
X82540688Y-60489305D01*
X82480989Y-60704570D01*
X82457251Y-60926695D01*
X82457548Y-60931848D01*
X82457548Y-60931851D01*
X82468397Y-61120002D01*
X82470110Y-61149715D01*
X82471247Y-61154761D01*
X82471248Y-61154767D01*
X82489722Y-61236739D01*
X82519222Y-61367639D01*
X82603266Y-61574616D01*
X82605965Y-61579020D01*
X82678827Y-61697920D01*
X82719987Y-61765088D01*
X82866250Y-61933938D01*
X83038126Y-62076632D01*
X83108595Y-62117811D01*
X83111445Y-62119476D01*
X83160169Y-62171114D01*
X83173240Y-62240897D01*
X83146509Y-62306669D01*
X83106055Y-62340027D01*
X83093607Y-62346507D01*
X83089474Y-62349610D01*
X83089471Y-62349612D01*
X83065247Y-62367800D01*
X82914965Y-62480635D01*
X82760629Y-62642138D01*
X82634743Y-62826680D01*
X82540688Y-63029305D01*
X82480989Y-63244570D01*
X82457251Y-63466695D01*
X82457548Y-63471848D01*
X82457548Y-63471851D01*
X82464187Y-63586996D01*
X82470110Y-63689715D01*
X82471247Y-63694761D01*
X82471248Y-63694767D01*
X82491119Y-63782939D01*
X82519222Y-63907639D01*
X82564377Y-64018842D01*
X82596612Y-64098228D01*
X82603266Y-64114616D01*
X82719987Y-64305088D01*
X82866250Y-64473938D01*
X83038126Y-64616632D01*
X83078147Y-64640018D01*
X83111445Y-64659476D01*
X83160169Y-64711114D01*
X83173240Y-64780897D01*
X83146509Y-64846669D01*
X83106055Y-64880027D01*
X83093607Y-64886507D01*
X83089474Y-64889610D01*
X83089471Y-64889612D01*
X82944724Y-64998291D01*
X82914965Y-65020635D01*
X82760629Y-65182138D01*
X82757715Y-65186410D01*
X82757714Y-65186411D01*
X82704496Y-65264426D01*
X82634743Y-65366680D01*
X82595230Y-65451804D01*
X82553595Y-65541500D01*
X82540688Y-65569305D01*
X82480989Y-65784570D01*
X82457251Y-66006695D01*
X82470110Y-66229715D01*
X82471247Y-66234761D01*
X82471248Y-66234767D01*
X82495304Y-66341508D01*
X82519222Y-66447639D01*
X82603266Y-66654616D01*
X82642415Y-66718502D01*
X82714596Y-66836290D01*
X82719987Y-66845088D01*
X82866250Y-67013938D01*
X83038126Y-67156632D01*
X83231000Y-67269338D01*
X83235825Y-67271180D01*
X83235826Y-67271181D01*
X83251934Y-67277332D01*
X83439692Y-67349030D01*
X83444760Y-67350061D01*
X83444763Y-67350062D01*
X83552017Y-67371883D01*
X83658597Y-67393567D01*
X83663772Y-67393757D01*
X83663774Y-67393757D01*
X83876673Y-67401564D01*
X83876677Y-67401564D01*
X83881837Y-67401753D01*
X83886957Y-67401097D01*
X83886959Y-67401097D01*
X84098288Y-67374025D01*
X84098289Y-67374025D01*
X84103416Y-67373368D01*
X84108366Y-67371883D01*
X84312429Y-67310661D01*
X84312434Y-67310659D01*
X84317384Y-67309174D01*
X84517994Y-67210896D01*
X84699860Y-67081173D01*
X84706005Y-67075050D01*
X84846345Y-66935199D01*
X84858096Y-66923489D01*
X84884703Y-66886462D01*
X84982060Y-66750974D01*
X85038055Y-66707326D01*
X85084383Y-66698500D01*
X88184104Y-66698500D01*
X88252225Y-66718502D01*
X88298718Y-66772158D01*
X88303626Y-66784619D01*
X88358450Y-66948946D01*
X88451522Y-67099348D01*
X88456704Y-67104521D01*
X88487809Y-67135572D01*
X88576697Y-67224305D01*
X88582927Y-67228145D01*
X88582928Y-67228146D01*
X88720090Y-67312694D01*
X88727262Y-67317115D01*
X88788833Y-67337537D01*
X88888611Y-67370632D01*
X88888613Y-67370632D01*
X88895139Y-67372797D01*
X88901975Y-67373497D01*
X88901978Y-67373498D01*
X88945031Y-67377909D01*
X88999600Y-67383500D01*
X89900400Y-67383500D01*
X89903646Y-67383163D01*
X89903650Y-67383163D01*
X89999308Y-67373238D01*
X89999312Y-67373237D01*
X90006166Y-67372526D01*
X90012702Y-67370345D01*
X90012704Y-67370345D01*
X90144806Y-67326272D01*
X90173946Y-67316550D01*
X90324348Y-67223478D01*
X90449305Y-67098303D01*
X90462110Y-67077529D01*
X90538275Y-66953968D01*
X90538276Y-66953966D01*
X90542115Y-66947738D01*
X90577621Y-66840689D01*
X90595632Y-66786389D01*
X90595632Y-66786387D01*
X90597797Y-66779861D01*
X90598587Y-66772158D01*
X90608172Y-66678598D01*
X90608500Y-66675400D01*
X90608500Y-65324600D01*
X90600936Y-65251697D01*
X90598238Y-65225692D01*
X90598237Y-65225688D01*
X90597526Y-65218834D01*
X90592730Y-65204457D01*
X90543868Y-65058002D01*
X90541550Y-65051054D01*
X90448478Y-64900652D01*
X90323303Y-64775695D01*
X90316980Y-64771797D01*
X90172738Y-64682885D01*
X90173774Y-64681205D01*
X90127969Y-64640879D01*
X90108500Y-64573595D01*
X90108500Y-63874950D01*
X90128502Y-63806829D01*
X90145405Y-63785855D01*
X90485855Y-63445405D01*
X90548167Y-63411379D01*
X90574950Y-63408500D01*
X92152911Y-63408500D01*
X92197141Y-63416518D01*
X92282394Y-63448478D01*
X92297649Y-63452105D01*
X92348514Y-63457631D01*
X92355328Y-63458000D01*
X92727885Y-63458000D01*
X92743124Y-63453525D01*
X92744329Y-63452135D01*
X92746000Y-63444452D01*
X92746000Y-60560116D01*
X92741525Y-60544877D01*
X92740135Y-60543672D01*
X92732452Y-60542001D01*
X92355331Y-60542001D01*
X92348510Y-60542371D01*
X92297648Y-60547895D01*
X92282397Y-60551521D01*
X92197141Y-60583482D01*
X92152911Y-60591500D01*
X91274950Y-60591500D01*
X91206829Y-60571498D01*
X91185854Y-60554595D01*
X90428547Y-59797287D01*
X90394522Y-59734975D01*
X90399587Y-59664159D01*
X90428471Y-59619173D01*
X90432390Y-59615248D01*
X90449305Y-59598303D01*
X90455261Y-59588641D01*
X90538275Y-59453968D01*
X90538276Y-59453966D01*
X90542115Y-59447738D01*
X90583976Y-59321531D01*
X90595632Y-59286389D01*
X90595632Y-59286387D01*
X90597797Y-59279861D01*
X90608500Y-59175400D01*
X90608500Y-57824600D01*
X90603957Y-57780814D01*
X90598238Y-57725692D01*
X90598237Y-57725688D01*
X90597526Y-57718834D01*
X90590723Y-57698441D01*
X90543868Y-57558002D01*
X90541550Y-57551054D01*
X90448478Y-57400652D01*
X90323303Y-57275695D01*
X90317072Y-57271854D01*
X90178968Y-57186725D01*
X90178966Y-57186724D01*
X90172738Y-57182885D01*
X90012254Y-57129655D01*
X90011389Y-57129368D01*
X90011387Y-57129368D01*
X90004861Y-57127203D01*
X89998025Y-57126503D01*
X89998022Y-57126502D01*
X89954969Y-57122091D01*
X89900400Y-57116500D01*
X88999600Y-57116500D01*
X88996354Y-57116837D01*
X88996350Y-57116837D01*
X88900692Y-57126762D01*
X88900688Y-57126763D01*
X88893834Y-57127474D01*
X88887298Y-57129655D01*
X88887296Y-57129655D01*
X88841320Y-57144994D01*
X88726054Y-57183450D01*
X88575652Y-57276522D01*
X88450695Y-57401697D01*
X88446855Y-57407927D01*
X88446854Y-57407928D01*
X88410109Y-57467540D01*
X88357885Y-57552262D01*
X88337134Y-57614824D01*
X88317119Y-57675167D01*
X88276688Y-57733527D01*
X88211124Y-57760764D01*
X88197526Y-57761500D01*
X85304500Y-57761500D01*
X85236379Y-57741498D01*
X85189886Y-57687842D01*
X85178500Y-57635500D01*
X85178500Y-57521866D01*
X85171745Y-57459684D01*
X85120615Y-57323295D01*
X85033261Y-57206739D01*
X84916705Y-57119385D01*
X84780316Y-57068255D01*
X84718134Y-57061500D01*
X83173950Y-57061500D01*
X83105829Y-57041498D01*
X83059336Y-56987842D01*
X83049232Y-56917568D01*
X83078726Y-56852988D01*
X83084855Y-56846405D01*
X83135855Y-56795405D01*
X83198167Y-56761379D01*
X83224950Y-56758500D01*
X91275050Y-56758500D01*
X91343171Y-56778502D01*
X91364145Y-56795405D01*
X91671365Y-57102625D01*
X91705391Y-57164937D01*
X91700326Y-57235752D01*
X91671443Y-57280738D01*
X91588659Y-57363667D01*
X91550695Y-57401697D01*
X91546855Y-57407927D01*
X91546854Y-57407928D01*
X91510109Y-57467540D01*
X91457885Y-57552262D01*
X91402203Y-57720139D01*
X91401503Y-57726975D01*
X91401502Y-57726978D01*
X91399330Y-57748176D01*
X91391500Y-57824600D01*
X91391500Y-59175400D01*
X91402474Y-59281166D01*
X91404655Y-59287702D01*
X91404655Y-59287704D01*
X91415941Y-59321531D01*
X91458450Y-59448946D01*
X91551522Y-59599348D01*
X91676697Y-59724305D01*
X91682927Y-59728145D01*
X91682928Y-59728146D01*
X91820090Y-59812694D01*
X91827262Y-59817115D01*
X91893979Y-59839244D01*
X91988611Y-59870632D01*
X91988613Y-59870632D01*
X91995139Y-59872797D01*
X92001975Y-59873497D01*
X92001978Y-59873498D01*
X92045031Y-59877909D01*
X92099600Y-59883500D01*
X93000400Y-59883500D01*
X93003646Y-59883163D01*
X93003650Y-59883163D01*
X93099308Y-59873238D01*
X93099312Y-59873237D01*
X93106166Y-59872526D01*
X93112702Y-59870345D01*
X93112704Y-59870345D01*
X93262394Y-59820404D01*
X93273946Y-59816550D01*
X93424348Y-59723478D01*
X93549305Y-59598303D01*
X93555261Y-59588641D01*
X93638275Y-59453968D01*
X93638276Y-59453966D01*
X93642115Y-59447738D01*
X93683976Y-59321531D01*
X93695632Y-59286389D01*
X93695632Y-59286387D01*
X93697797Y-59279861D01*
X93708500Y-59175400D01*
X93708500Y-58154183D01*
X100264389Y-58154183D01*
X100265912Y-58162607D01*
X100278292Y-58166000D01*
X101327885Y-58166000D01*
X101343124Y-58161525D01*
X101344329Y-58160135D01*
X101346000Y-58152452D01*
X101346000Y-58147885D01*
X101854000Y-58147885D01*
X101858475Y-58163124D01*
X101859865Y-58164329D01*
X101867548Y-58166000D01*
X102918344Y-58166000D01*
X102931875Y-58162027D01*
X102933180Y-58152947D01*
X102891214Y-57985875D01*
X102887894Y-57976124D01*
X102802972Y-57780814D01*
X102798105Y-57771739D01*
X102682426Y-57592926D01*
X102676136Y-57584757D01*
X102532806Y-57427240D01*
X102525273Y-57420215D01*
X102358139Y-57288222D01*
X102349552Y-57282517D01*
X102163117Y-57179599D01*
X102153705Y-57175369D01*
X101952959Y-57104280D01*
X101942988Y-57101646D01*
X101871837Y-57088972D01*
X101858540Y-57090432D01*
X101854000Y-57104989D01*
X101854000Y-58147885D01*
X101346000Y-58147885D01*
X101346000Y-57103102D01*
X101342082Y-57089758D01*
X101327806Y-57087771D01*
X101289324Y-57093660D01*
X101279288Y-57096051D01*
X101076868Y-57162212D01*
X101067359Y-57166209D01*
X100878463Y-57264542D01*
X100869738Y-57270036D01*
X100699433Y-57397905D01*
X100691726Y-57404748D01*
X100544590Y-57558717D01*
X100538104Y-57566727D01*
X100418098Y-57742649D01*
X100413000Y-57751623D01*
X100323338Y-57944783D01*
X100319775Y-57954470D01*
X100264389Y-58154183D01*
X93708500Y-58154183D01*
X93708500Y-57824600D01*
X93703957Y-57780814D01*
X93698238Y-57725692D01*
X93698237Y-57725688D01*
X93697526Y-57718834D01*
X93690723Y-57698441D01*
X93643868Y-57558002D01*
X93641550Y-57551054D01*
X93548478Y-57400652D01*
X93423303Y-57275695D01*
X93417072Y-57271854D01*
X93278968Y-57186725D01*
X93278966Y-57186724D01*
X93272738Y-57182885D01*
X93265790Y-57180581D01*
X93265787Y-57180579D01*
X93246939Y-57174327D01*
X93188579Y-57133896D01*
X93161344Y-57068331D01*
X93160670Y-57058694D01*
X93158562Y-56991632D01*
X93158500Y-56987673D01*
X93158500Y-56958568D01*
X93157944Y-56954168D01*
X93157012Y-56942330D01*
X93155811Y-56904094D01*
X93155562Y-56896169D01*
X93149580Y-56875579D01*
X93145570Y-56856216D01*
X93143875Y-56842796D01*
X93143875Y-56842795D01*
X93142882Y-56834936D01*
X93139966Y-56827571D01*
X93139965Y-56827567D01*
X93125874Y-56791979D01*
X93122035Y-56780769D01*
X93109145Y-56736400D01*
X93098229Y-56717943D01*
X93089534Y-56700193D01*
X93081635Y-56680244D01*
X93054477Y-56642864D01*
X93047960Y-56632943D01*
X93024452Y-56593193D01*
X93009291Y-56578032D01*
X92996449Y-56562997D01*
X92983841Y-56545643D01*
X92948248Y-56516198D01*
X92939467Y-56508208D01*
X92123651Y-55692391D01*
X92115663Y-55683612D01*
X92111416Y-55676920D01*
X92059741Y-55628394D01*
X92056900Y-55625640D01*
X92036333Y-55605073D01*
X92032826Y-55602353D01*
X92023804Y-55594647D01*
X92019613Y-55590711D01*
X91990133Y-55563028D01*
X91983181Y-55559206D01*
X91971342Y-55552697D01*
X91954818Y-55541843D01*
X91944132Y-55533555D01*
X91937868Y-55528696D01*
X91930596Y-55525549D01*
X91930594Y-55525548D01*
X91895465Y-55510346D01*
X91884805Y-55505124D01*
X91851284Y-55486695D01*
X91851282Y-55486694D01*
X91844337Y-55482876D01*
X91823559Y-55477541D01*
X91804869Y-55471142D01*
X91785176Y-55462620D01*
X91739552Y-55455394D01*
X91727929Y-55452987D01*
X91693661Y-55444189D01*
X91683188Y-55441500D01*
X91661741Y-55441500D01*
X91642031Y-55439949D01*
X91628677Y-55437834D01*
X91620848Y-55436594D01*
X91574859Y-55440941D01*
X91563004Y-55441500D01*
X82982056Y-55441500D01*
X82970200Y-55440941D01*
X82970197Y-55440941D01*
X82962463Y-55439212D01*
X82907446Y-55440941D01*
X82891631Y-55441438D01*
X82887673Y-55441500D01*
X82858568Y-55441500D01*
X82854168Y-55442056D01*
X82842336Y-55442988D01*
X82796169Y-55444438D01*
X82775579Y-55450420D01*
X82756218Y-55454430D01*
X82749230Y-55455312D01*
X82742796Y-55456125D01*
X82742795Y-55456125D01*
X82734936Y-55457118D01*
X82727571Y-55460034D01*
X82727567Y-55460035D01*
X82691979Y-55474126D01*
X82680769Y-55477965D01*
X82636400Y-55490855D01*
X82617935Y-55501775D01*
X82600195Y-55510466D01*
X82580244Y-55518365D01*
X82542874Y-55545516D01*
X82532952Y-55552033D01*
X82500023Y-55571507D01*
X82500019Y-55571510D01*
X82493193Y-55575547D01*
X82478029Y-55590711D01*
X82462996Y-55603551D01*
X82445643Y-55616159D01*
X82435521Y-55628395D01*
X82416198Y-55651752D01*
X82408208Y-55660532D01*
X80792395Y-57276345D01*
X80783615Y-57284335D01*
X80783613Y-57284337D01*
X80776920Y-57288584D01*
X80771494Y-57294362D01*
X80771493Y-57294363D01*
X80728396Y-57340257D01*
X80725641Y-57343099D01*
X80723595Y-57345145D01*
X80661283Y-57379171D01*
X80590468Y-57374106D01*
X80533632Y-57331559D01*
X80508821Y-57265039D01*
X80508500Y-57256050D01*
X80508500Y-54634500D01*
X80528502Y-54566379D01*
X80582158Y-54519886D01*
X80634500Y-54508500D01*
X104365500Y-54508500D01*
X104433621Y-54528502D01*
G37*
%TD.AperFunction*%
%TD*%
M02*
