%TF.GenerationSoftware,KiCad,Pcbnew,(6.0.6)*%
%TF.CreationDate,2022-10-14T11:17:07+05:30*%
%TF.ProjectId,SHT30_breakout,53485433-305f-4627-9265-616b6f75742e,rev?*%
%TF.SameCoordinates,Original*%
%TF.FileFunction,Copper,L2,Bot*%
%TF.FilePolarity,Positive*%
%FSLAX46Y46*%
G04 Gerber Fmt 4.6, Leading zero omitted, Abs format (unit mm)*
G04 Created by KiCad (PCBNEW (6.0.6)) date 2022-10-14 11:17:07*
%MOMM*%
%LPD*%
G01*
G04 APERTURE LIST*
%TA.AperFunction,ComponentPad*%
%ADD10R,1.700000X1.700000*%
%TD*%
%TA.AperFunction,ComponentPad*%
%ADD11O,1.700000X1.700000*%
%TD*%
G04 APERTURE END LIST*
D10*
%TO.P,J1,1,Pin_1*%
%TO.N,Net-(IC1-Pad1)*%
X83820000Y-58420000D03*
D11*
%TO.P,J1,2,Pin_2*%
%TO.N,Net-(IC1-Pad2)*%
X83820000Y-60960000D03*
%TO.P,J1,3,Pin_3*%
%TO.N,Net-(J1-Pad3)*%
X83820000Y-63500000D03*
%TO.P,J1,4,Pin_4*%
%TO.N,Net-(IC1-Pad4)*%
X83820000Y-66040000D03*
%TD*%
D10*
%TO.P,J2,1,Pin_1*%
%TO.N,Net-(C1-Pad1)*%
X101600000Y-66040000D03*
D11*
%TO.P,J2,2,Pin_2*%
%TO.N,Net-(J2-Pad2)*%
X101600000Y-63500000D03*
%TO.P,J2,3,Pin_3*%
%TO.N,Net-(J2-Pad3)*%
X101600000Y-60960000D03*
%TO.P,J2,4,Pin_4*%
%TO.N,GND*%
X101600000Y-58420000D03*
%TD*%
%TA.AperFunction,Conductor*%
%TO.N,GND*%
G36*
X104433621Y-54528502D02*
G01*
X104480114Y-54582158D01*
X104491500Y-54634500D01*
X104491500Y-69365500D01*
X104471498Y-69433621D01*
X104417842Y-69480114D01*
X104365500Y-69491500D01*
X80634500Y-69491500D01*
X80566379Y-69471498D01*
X80519886Y-69417842D01*
X80508500Y-69365500D01*
X80508500Y-66006695D01*
X82457251Y-66006695D01*
X82457548Y-66011848D01*
X82457548Y-66011851D01*
X82463011Y-66106590D01*
X82470110Y-66229715D01*
X82471247Y-66234761D01*
X82471248Y-66234767D01*
X82491119Y-66322939D01*
X82519222Y-66447639D01*
X82603266Y-66654616D01*
X82719987Y-66845088D01*
X82866250Y-67013938D01*
X83038126Y-67156632D01*
X83231000Y-67269338D01*
X83439692Y-67349030D01*
X83444760Y-67350061D01*
X83444763Y-67350062D01*
X83552017Y-67371883D01*
X83658597Y-67393567D01*
X83663772Y-67393757D01*
X83663774Y-67393757D01*
X83876673Y-67401564D01*
X83876677Y-67401564D01*
X83881837Y-67401753D01*
X83886957Y-67401097D01*
X83886959Y-67401097D01*
X84098288Y-67374025D01*
X84098289Y-67374025D01*
X84103416Y-67373368D01*
X84108366Y-67371883D01*
X84312429Y-67310661D01*
X84312434Y-67310659D01*
X84317384Y-67309174D01*
X84517994Y-67210896D01*
X84699860Y-67081173D01*
X84858096Y-66923489D01*
X84917594Y-66840689D01*
X84985435Y-66746277D01*
X84988453Y-66742077D01*
X85087430Y-66541811D01*
X85152370Y-66328069D01*
X85181529Y-66106590D01*
X85183156Y-66040000D01*
X85164852Y-65817361D01*
X85110431Y-65600702D01*
X85021354Y-65395840D01*
X84900014Y-65208277D01*
X84749670Y-65043051D01*
X84745619Y-65039852D01*
X84745615Y-65039848D01*
X84578414Y-64907800D01*
X84578410Y-64907798D01*
X84574359Y-64904598D01*
X84533053Y-64881796D01*
X84483084Y-64831364D01*
X84468312Y-64761921D01*
X84493428Y-64695516D01*
X84520780Y-64668909D01*
X84564603Y-64637650D01*
X84699860Y-64541173D01*
X84858096Y-64383489D01*
X84917594Y-64300689D01*
X84985435Y-64206277D01*
X84988453Y-64202077D01*
X85087430Y-64001811D01*
X85152370Y-63788069D01*
X85181529Y-63566590D01*
X85183156Y-63500000D01*
X85180418Y-63466695D01*
X100237251Y-63466695D01*
X100237548Y-63471848D01*
X100237548Y-63471851D01*
X100243011Y-63566590D01*
X100250110Y-63689715D01*
X100251247Y-63694761D01*
X100251248Y-63694767D01*
X100271119Y-63782939D01*
X100299222Y-63907639D01*
X100383266Y-64114616D01*
X100499987Y-64305088D01*
X100646250Y-64473938D01*
X100650230Y-64477242D01*
X100654981Y-64481187D01*
X100694616Y-64540090D01*
X100696113Y-64611071D01*
X100658997Y-64671593D01*
X100618725Y-64696112D01*
X100530095Y-64729338D01*
X100503295Y-64739385D01*
X100386739Y-64826739D01*
X100299385Y-64943295D01*
X100248255Y-65079684D01*
X100241500Y-65141866D01*
X100241500Y-66938134D01*
X100248255Y-67000316D01*
X100299385Y-67136705D01*
X100386739Y-67253261D01*
X100503295Y-67340615D01*
X100639684Y-67391745D01*
X100701866Y-67398500D01*
X102498134Y-67398500D01*
X102560316Y-67391745D01*
X102696705Y-67340615D01*
X102813261Y-67253261D01*
X102900615Y-67136705D01*
X102951745Y-67000316D01*
X102958500Y-66938134D01*
X102958500Y-65141866D01*
X102951745Y-65079684D01*
X102900615Y-64943295D01*
X102813261Y-64826739D01*
X102696705Y-64739385D01*
X102669905Y-64729338D01*
X102578203Y-64694960D01*
X102521439Y-64652318D01*
X102496739Y-64585756D01*
X102511947Y-64516408D01*
X102533493Y-64487727D01*
X102634435Y-64387137D01*
X102638096Y-64383489D01*
X102697594Y-64300689D01*
X102765435Y-64206277D01*
X102768453Y-64202077D01*
X102867430Y-64001811D01*
X102932370Y-63788069D01*
X102961529Y-63566590D01*
X102963156Y-63500000D01*
X102944852Y-63277361D01*
X102890431Y-63060702D01*
X102801354Y-62855840D01*
X102680014Y-62668277D01*
X102529670Y-62503051D01*
X102525619Y-62499852D01*
X102525615Y-62499848D01*
X102358414Y-62367800D01*
X102358410Y-62367798D01*
X102354359Y-62364598D01*
X102313053Y-62341796D01*
X102263084Y-62291364D01*
X102248312Y-62221921D01*
X102273428Y-62155516D01*
X102300780Y-62128909D01*
X102344603Y-62097650D01*
X102479860Y-62001173D01*
X102638096Y-61843489D01*
X102697594Y-61760689D01*
X102765435Y-61666277D01*
X102768453Y-61662077D01*
X102867430Y-61461811D01*
X102932370Y-61248069D01*
X102961529Y-61026590D01*
X102963156Y-60960000D01*
X102944852Y-60737361D01*
X102890431Y-60520702D01*
X102801354Y-60315840D01*
X102680014Y-60128277D01*
X102529670Y-59963051D01*
X102525619Y-59959852D01*
X102525615Y-59959848D01*
X102358414Y-59827800D01*
X102358410Y-59827798D01*
X102354359Y-59824598D01*
X102312569Y-59801529D01*
X102262598Y-59751097D01*
X102247826Y-59681654D01*
X102272942Y-59615248D01*
X102300294Y-59588641D01*
X102475328Y-59463792D01*
X102483200Y-59457139D01*
X102634052Y-59306812D01*
X102640730Y-59298965D01*
X102765003Y-59126020D01*
X102770313Y-59117183D01*
X102864670Y-58926267D01*
X102868469Y-58916672D01*
X102930377Y-58712910D01*
X102932555Y-58702837D01*
X102933986Y-58691962D01*
X102931775Y-58677778D01*
X102918617Y-58674000D01*
X100283225Y-58674000D01*
X100269694Y-58677973D01*
X100268257Y-58687966D01*
X100298565Y-58822446D01*
X100301645Y-58832275D01*
X100381770Y-59029603D01*
X100386413Y-59038794D01*
X100497694Y-59220388D01*
X100503777Y-59228699D01*
X100643213Y-59389667D01*
X100650580Y-59396883D01*
X100814434Y-59532916D01*
X100822881Y-59538831D01*
X100891969Y-59579203D01*
X100940693Y-59630842D01*
X100953764Y-59700625D01*
X100927033Y-59766396D01*
X100886584Y-59799752D01*
X100873607Y-59806507D01*
X100869474Y-59809610D01*
X100869471Y-59809612D01*
X100745567Y-59902642D01*
X100694965Y-59940635D01*
X100540629Y-60102138D01*
X100414743Y-60286680D01*
X100320688Y-60489305D01*
X100260989Y-60704570D01*
X100237251Y-60926695D01*
X100237548Y-60931848D01*
X100237548Y-60931851D01*
X100243011Y-61026590D01*
X100250110Y-61149715D01*
X100251247Y-61154761D01*
X100251248Y-61154767D01*
X100271119Y-61242939D01*
X100299222Y-61367639D01*
X100383266Y-61574616D01*
X100499987Y-61765088D01*
X100646250Y-61933938D01*
X100818126Y-62076632D01*
X100888595Y-62117811D01*
X100891445Y-62119476D01*
X100940169Y-62171114D01*
X100953240Y-62240897D01*
X100926509Y-62306669D01*
X100886055Y-62340027D01*
X100873607Y-62346507D01*
X100869474Y-62349610D01*
X100869471Y-62349612D01*
X100845247Y-62367800D01*
X100694965Y-62480635D01*
X100540629Y-62642138D01*
X100414743Y-62826680D01*
X100320688Y-63029305D01*
X100260989Y-63244570D01*
X100237251Y-63466695D01*
X85180418Y-63466695D01*
X85164852Y-63277361D01*
X85110431Y-63060702D01*
X85021354Y-62855840D01*
X84900014Y-62668277D01*
X84749670Y-62503051D01*
X84745619Y-62499852D01*
X84745615Y-62499848D01*
X84578414Y-62367800D01*
X84578410Y-62367798D01*
X84574359Y-62364598D01*
X84533053Y-62341796D01*
X84483084Y-62291364D01*
X84468312Y-62221921D01*
X84493428Y-62155516D01*
X84520780Y-62128909D01*
X84564603Y-62097650D01*
X84699860Y-62001173D01*
X84858096Y-61843489D01*
X84917594Y-61760689D01*
X84985435Y-61666277D01*
X84988453Y-61662077D01*
X85087430Y-61461811D01*
X85152370Y-61248069D01*
X85181529Y-61026590D01*
X85183156Y-60960000D01*
X85164852Y-60737361D01*
X85110431Y-60520702D01*
X85021354Y-60315840D01*
X84900014Y-60128277D01*
X84896532Y-60124450D01*
X84752798Y-59966488D01*
X84721746Y-59902642D01*
X84730141Y-59832143D01*
X84775317Y-59777375D01*
X84801761Y-59763706D01*
X84908297Y-59723767D01*
X84916705Y-59720615D01*
X85033261Y-59633261D01*
X85120615Y-59516705D01*
X85171745Y-59380316D01*
X85178500Y-59318134D01*
X85178500Y-58154183D01*
X100264389Y-58154183D01*
X100265912Y-58162607D01*
X100278292Y-58166000D01*
X101327885Y-58166000D01*
X101343124Y-58161525D01*
X101344329Y-58160135D01*
X101346000Y-58152452D01*
X101346000Y-58147885D01*
X101854000Y-58147885D01*
X101858475Y-58163124D01*
X101859865Y-58164329D01*
X101867548Y-58166000D01*
X102918344Y-58166000D01*
X102931875Y-58162027D01*
X102933180Y-58152947D01*
X102891214Y-57985875D01*
X102887894Y-57976124D01*
X102802972Y-57780814D01*
X102798105Y-57771739D01*
X102682426Y-57592926D01*
X102676136Y-57584757D01*
X102532806Y-57427240D01*
X102525273Y-57420215D01*
X102358139Y-57288222D01*
X102349552Y-57282517D01*
X102163117Y-57179599D01*
X102153705Y-57175369D01*
X101952959Y-57104280D01*
X101942988Y-57101646D01*
X101871837Y-57088972D01*
X101858540Y-57090432D01*
X101854000Y-57104989D01*
X101854000Y-58147885D01*
X101346000Y-58147885D01*
X101346000Y-57103102D01*
X101342082Y-57089758D01*
X101327806Y-57087771D01*
X101289324Y-57093660D01*
X101279288Y-57096051D01*
X101076868Y-57162212D01*
X101067359Y-57166209D01*
X100878463Y-57264542D01*
X100869738Y-57270036D01*
X100699433Y-57397905D01*
X100691726Y-57404748D01*
X100544590Y-57558717D01*
X100538104Y-57566727D01*
X100418098Y-57742649D01*
X100413000Y-57751623D01*
X100323338Y-57944783D01*
X100319775Y-57954470D01*
X100264389Y-58154183D01*
X85178500Y-58154183D01*
X85178500Y-57521866D01*
X85171745Y-57459684D01*
X85120615Y-57323295D01*
X85033261Y-57206739D01*
X84916705Y-57119385D01*
X84780316Y-57068255D01*
X84718134Y-57061500D01*
X82921866Y-57061500D01*
X82859684Y-57068255D01*
X82723295Y-57119385D01*
X82606739Y-57206739D01*
X82519385Y-57323295D01*
X82468255Y-57459684D01*
X82461500Y-57521866D01*
X82461500Y-59318134D01*
X82468255Y-59380316D01*
X82519385Y-59516705D01*
X82606739Y-59633261D01*
X82723295Y-59720615D01*
X82731704Y-59723767D01*
X82731705Y-59723768D01*
X82840451Y-59764535D01*
X82897216Y-59807176D01*
X82921916Y-59873738D01*
X82906709Y-59943087D01*
X82887316Y-59969568D01*
X82760629Y-60102138D01*
X82634743Y-60286680D01*
X82540688Y-60489305D01*
X82480989Y-60704570D01*
X82457251Y-60926695D01*
X82457548Y-60931848D01*
X82457548Y-60931851D01*
X82463011Y-61026590D01*
X82470110Y-61149715D01*
X82471247Y-61154761D01*
X82471248Y-61154767D01*
X82491119Y-61242939D01*
X82519222Y-61367639D01*
X82603266Y-61574616D01*
X82719987Y-61765088D01*
X82866250Y-61933938D01*
X83038126Y-62076632D01*
X83108595Y-62117811D01*
X83111445Y-62119476D01*
X83160169Y-62171114D01*
X83173240Y-62240897D01*
X83146509Y-62306669D01*
X83106055Y-62340027D01*
X83093607Y-62346507D01*
X83089474Y-62349610D01*
X83089471Y-62349612D01*
X83065247Y-62367800D01*
X82914965Y-62480635D01*
X82760629Y-62642138D01*
X82634743Y-62826680D01*
X82540688Y-63029305D01*
X82480989Y-63244570D01*
X82457251Y-63466695D01*
X82457548Y-63471848D01*
X82457548Y-63471851D01*
X82463011Y-63566590D01*
X82470110Y-63689715D01*
X82471247Y-63694761D01*
X82471248Y-63694767D01*
X82491119Y-63782939D01*
X82519222Y-63907639D01*
X82603266Y-64114616D01*
X82719987Y-64305088D01*
X82866250Y-64473938D01*
X83038126Y-64616632D01*
X83099196Y-64652318D01*
X83111445Y-64659476D01*
X83160169Y-64711114D01*
X83173240Y-64780897D01*
X83146509Y-64846669D01*
X83106055Y-64880027D01*
X83093607Y-64886507D01*
X83089474Y-64889610D01*
X83089471Y-64889612D01*
X82919100Y-65017530D01*
X82914965Y-65020635D01*
X82760629Y-65182138D01*
X82634743Y-65366680D01*
X82540688Y-65569305D01*
X82480989Y-65784570D01*
X82457251Y-66006695D01*
X80508500Y-66006695D01*
X80508500Y-54634500D01*
X80528502Y-54566379D01*
X80582158Y-54519886D01*
X80634500Y-54508500D01*
X104365500Y-54508500D01*
X104433621Y-54528502D01*
G37*
%TD.AperFunction*%
%TD*%
M02*
